<svg xmlns="http://www.w3.org/2000/svg" viewBox="0 0 32 32" width="32" height="32">
  <!-- Background circle -->
  <circle cx="16" cy="16" r="15" fill="#1a1a1a" stroke="#333" stroke-width="1"/>
  
  <!-- Film strip design -->
  <rect x="6" y="8" width="20" height="16" fill="#2a2a2a" rx="2"/>
  
  <!-- Film perforations (holes) -->
  <rect x="4" y="10" width="2" height="1.5" fill="#1a1a1a"/>
  <rect x="4" y="13" width="2" height="1.5" fill="#1a1a1a"/>
  <rect x="4" y="16" width="2" height="1.5" fill="#1a1a1a"/>
  <rect x="4" y="19" width="2" height="1.5" fill="#1a1a1a"/>
  
  <rect x="26" y="10" width="2" height="1.5" fill="#1a1a1a"/>
  <rect x="26" y="13" width="2" height="1.5" fill="#1a1a1a"/>
  <rect x="26" y="16" width="2" height="1.5" fill="#1a1a1a"/>
  <rect x="26" y="19" width="2" height="1.5" fill="#1a1a1a"/>
  
  <!-- Play button triangle -->
  <polygon points="12,11 12,21 22,16" fill="#ff6b6b"/>
  
  <!-- Small accent dots -->
  <circle cx="8" cy="6" r="1" fill="#ff6b6b"/>
  <circle cx="24" cy="6" r="1" fill="#ff6b6b"/>
  <circle cx="8" cy="26" r="1" fill="#ff6b6b"/>
  <circle cx="24" cy="26" r="1" fill="#ff6b6b"/>
</svg>
